# xmcd CD database file
#
# Track frame offsets:
#	150
#	15030
#	31673
#	46625
#	60635
#	75187
#	88622
#	99486
#	114959
#	126864
#	141809
#	157655
#	170300
#
# Disc length: 2461 seconds
#
# Revision: 0
# Processed by: cddbd v1.5.1PL0 Copyright (c) Steve Scherf et al.
# Submitted via: CDex 1.50
#
DISCID=7d099b0d
DTITLE=Greg Champion - Special Edition CD 2 - Shady Tree
DYEAR=2002
DGENRE=Country
TTITLE0=Shady Tree
TTITLE1=I've Never Been
TTITLE2=Further Up The Mountain
TTITLE3=Might Be Jesus Knockin'
TTITLE4=Rise Up
TTITLE5=The Singing Bird
TTITLE6=This Body's Gonna Wear Out
TTITLE7=Rough With The Smooth
TTITLE8=Slow And Mournful
TTITLE9=Sleep On The Stony Ground
TTITLE10=Love In The Heart
TTITLE11=Walk Across That Line
TTITLE12=When I Kick The Bucket
EXTD=YEAR: 2002
EXTT0=
EXTT1=
EXTT2=
EXTT3=
EXTT4=
EXTT5=
EXTT6=
EXTT7=
EXTT8=
EXTT9=
EXTT10=
EXTT11=
EXTT12=
PLAYORDER=
